{
  "asset": {
    "version": "2.0",
    "generator": "THREE.GLTFExporter"
  },
  "scenes": [
    {
      "name": "Scene",
      "nodes": [
        4
      ]
    }
  ],
  "scene": 0,
  "nodes": [
    {
      "matrix": [
        1.7,
        0,
        0,
        0,
        0,
        1.7,
        0,
        0,
        0,
        0,
        1.7,
        0,
        0,
        -0.5177626731848997,
        -1.298662384910937,
        1
      ],
      "name": "pCube1",
      "extras": {
        "name": "pCube1"
      },
      "mesh": 0
    },
    {
      "matrix": [
        1,
        0,
        0,
        0,
        0,
        1,
        0,
        0,
        0,
        0,
        1,
        0,
        0,
        0.5139462133531421,
        0,
        1
      ],
      "name": "Cubogltf",
      "extras": {
        "name": "Cubo.gltf"
      },
      "children": [
        0
      ]
    },
    {
      "matrix": [
        -49.03296164708378,
        0,
        0,
        0,
        0,
        -49.03296164708378,
        0,
        0,
        0,
        0,
        -49.03296164708378,
        0,
        0,
        3.8804671381042186,
        -2.321207223150301,
        1
      ],
      "name": "AmbientLight",
      "extras": {
        "name": "AmbientLight"
      }
    },
    {
      "matrix": [
        1,
        0,
        0,
        0,
        0,
        1,
        0,
        0,
        0,
        0,
        1,
        0,
        0,
        0,
        1.7893997974890787,
        1
      ],
      "name": "cuboegltf",
      "extras": {
        "name": "cuboe.gltf"
      },
      "children": [
        1,
        2
      ]
    },
    {
      "name": "cuboe.gltf",
      "children": [
        3
      ]
    }
  ],
  "bufferViews": [
    {
      "buffer": 0,
      "byteOffset": 0,
      "byteLength": 8064,
      "target": 34962,
      "byteStride": 12
    },
    {
      "buffer": 0,
      "byteOffset": 8064,
      "byteLength": 8064,
      "target": 34962,
      "byteStride": 12
    },
    {
      "buffer": 0,
      "byteOffset": 16128,
      "byteLength": 5376,
      "target": 34962,
      "byteStride": 8
    },
    {
      "buffer": 0,
      "byteOffset": 21504,
      "byteLength": 1344,
      "target": 34963
    }
  ],
  "buffers": [
    {
      "byteLength": 22848,
      "uri": "data:application/octet-stream;base64,"
    }
  ],
  "accessors": [
    {
      "bufferView": 0,
      "componentType": 5126,
      "count": 672,
      "max": [
        0.5679426193237305,
        0.588384211063385,
        0.5725788474082947
      ],
      "min": [
        -0.5918936729431152,
        -0.6257660388946533,
        -0.5680403709411621
      ],
      "type": "VEC3"
    },
    {
      "bufferView": 1,
      "componentType": 5126,
      "count": 672,
      "max": [
        1.0000044107437134,
        1.0000044107437134,
        1.0000044107437134
      ],
      "min": [
        -1.0000044107437134,
        -1.0000044107437134,
        -1.0000044107437134
      ],
      "type": "VEC3"
    },
    {
      "bufferView": 2,
      "componentType": 5126,
      "count": 672,
      "max": [
        0.875,
        0
      ],
      "min": [
        0.125,
        -1
      ],
      "type": "VEC2"
    },
    {
      "bufferView": 3,
      "componentType": 5123,
      "count": 672,
      "max": [
        671
      ],
      "min": [
        0
      ],
      "type": "SCALAR"
    }
  ],
  "materials": [
    {
      "pbrMetallicRoughness": {
        "baseColorFactor": [
          0.09803921568627451,
          0.4392156862745098,
          0.4980392156862745,
          0.5519480407238007
        ],
        "metallicFactor": 0,
        "roughnessFactor": 0
      },
      "emissiveFactor": [
        0.17254901960784313,
        0.17254901960784313,
        0.17254901960784313
      ],
      "alphaMode": "BLEND"
    }
  ],
  "meshes": [
    {
      "primitives": [
        {
          "mode": 4,
          "attributes": {
            "POSITION": 0,
            "NORMAL": 1,
            "TEXCOORD_0": 2
          },
          "indices": 3,
          "material": 0
        }
      ]
    }
  ]
}